<svg xmlns="http://www.w3.org/2000/svg" viewBox="0 0 85 72" width="340" height="288"><defs><linearGradient id="orange" x1="0" y1="0" x2=".8" y2="1"><stop stop-color="#ff9c37"/><stop offset=".55" stop-color="#ff7318"/><stop offset="1" stop-color="#e54a08"/></linearGradient><pattern id="micro-layers" width="1" height=".85" patternUnits="userSpaceOnUse"><path d="M0 .7H1" stroke="#602006" stroke-opacity=".18" stroke-width=".12"/><path d="M0 .85H1" stroke="#ffdb99" stroke-opacity=".2" stroke-width=".1"/></pattern></defs><g transform="translate(1 8) scale(.88)"><path d="M42,4L49,-2L56,-6L49,0Z" fill="#ffb252" stroke="#ffb252" stroke-width=".15"/><path d="M49,0L56,-6L88,11L81,17Z" fill="#ffb252" stroke="#ffb252" stroke-width=".15"/><path d="M81,17L88,11L88,25L81,31Z" fill="#9b3109" stroke="#9b3109" stroke-width=".15"/><path d="M81,31L88,25L66,14L59,20Z" fill="#cf4d0c" stroke="#cf4d0c" stroke-width=".15"/><path d="M59,20L66,14L66,2L59,8Z" fill="#cf4d0c" stroke="#cf4d0c" stroke-width=".15"/><path d="M59,8L66,2L65,2L58,8Z" fill="#cf4d0c" stroke="#cf4d0c" stroke-width=".15"/><path d="M58,8L65,2L65,31L58,37Z" fill="#9b3109" stroke="#9b3109" stroke-width=".15"/><path d="M58,37L65,31L49,22L42,28Z" fill="#cf4d0c" stroke="#cf4d0c" stroke-width=".15"/><path d="M42,28L49,22L49,-2L42,4Z" fill="#cf4d0c" stroke="#cf4d0c" stroke-width=".15"/><path d="M23,11L30,5L30,22L23,28Z" fill="#9b3109" stroke="#9b3109" stroke-width=".15"/><path d="M23,28L30,22L57,37L50,43Z" fill="#ffb252" stroke="#ffb252" stroke-width=".15"/><path d="M50,43L57,37L57,66L50,72Z" fill="#9b3109" stroke="#9b3109" stroke-width=".15"/><path d="M50,72L57,66L41,58L34,64Z" fill="#cf4d0c" stroke="#cf4d0c" stroke-width=".15"/><path d="M34,64L41,58L41,45L34,51Z" fill="#cf4d0c" stroke="#cf4d0c" stroke-width=".15"/><path d="M34,51L41,45L30,39L23,45Z" fill="#cf4d0c" stroke="#cf4d0c" stroke-width=".15"/><path d="M23,45L30,39L30,55L23,61Z" fill="#9b3109" stroke="#9b3109" stroke-width=".15"/><path d="M23,61L30,55L12,46L5,52Z" fill="#cf4d0c" stroke="#cf4d0c" stroke-width=".15"/><path d="M5,52L12,46L12,14L5,20Z" fill="#cf4d0c" stroke="#cf4d0c" stroke-width=".15"/><path d="M5,20L12,14L30,5L23,11Z" fill="#ffb252" stroke="#ffb252" stroke-width=".15"/><path d="M61,27L68,21L88,31L81,37Z" fill="#ffb252" stroke="#ffb252" stroke-width=".15"/><path d="M81,37L88,31L88,44L81,50Z" fill="#9b3109" stroke="#9b3109" stroke-width=".15"/><path d="M81,50L88,44L68,34L61,40Z" fill="#cf4d0c" stroke="#cf4d0c" stroke-width=".15"/><path d="M61,40L68,34L68,21L61,27Z" fill="#cf4d0c" stroke="#cf4d0c" stroke-width=".15"/><path d="M61,46L68,40L88,51L81,57Z" fill="#ffb252" stroke="#ffb252" stroke-width=".15"/><path d="M81,57L88,51L68,61L61,67Z" fill="#9b3109" stroke="#9b3109" stroke-width=".15"/><path d="M61,67L68,61L68,40L61,46Z" fill="#cf4d0c" stroke="#cf4d0c" stroke-width=".15"/><g fill="url(#orange)"><path d="M42 4 L49 0 L81 17 L81 31 L59 20 L59 8 L58 8 L58 37 L42 28 Z"/><path d="M23 11 L23 28 L50 43 L50 72 L34 64 L34 51 L23 45 L23 61 L5 52 L5 20 Z"/><path d="M61 27 L81 37 L81 50 L61 40 Z"/><path d="M61 46 L81 57 L61 67 Z"/></g><g fill="url(#micro-layers)"><path d="M42 4 L49 0 L81 17 L81 31 L59 20 L59 8 L58 8 L58 37 L42 28 Z"/><path d="M23 11 L23 28 L50 43 L50 72 L34 64 L34 51 L23 45 L23 61 L5 52 L5 20 Z"/><path d="M61 27 L81 37 L81 50 L61 40 Z"/><path d="M61 46 L81 57 L61 67 Z"/></g><g fill="none" stroke="#ffd491" stroke-opacity=".3" stroke-width=".22" stroke-linejoin="round"><path d="M42 4 L49 0 L81 17 L81 31 L59 20 L59 8 L58 8 L58 37 L42 28 Z"/><path d="M23 11 L23 28 L50 43 L50 72 L34 64 L34 51 L23 45 L23 61 L5 52 L5 20 Z"/><path d="M61 27 L81 37 L81 50 L61 40 Z"/><path d="M61 46 L81 57 L61 67 Z"/></g></g></svg>